<svg width="14" height="14" viewBox="0 0 14 14" fill="none" xmlns="http://www.w3.org/2000/svg">
<path d="M1.80408 5.48577H12.2014" stroke="#232C34" stroke-width="1.5" stroke-linecap="round" stroke-linejoin="round"/>
<path fill-rule="evenodd" clip-rule="evenodd" d="M3.65894 7.76404C3.65894 7.34982 3.99472 7.01404 4.40894 7.01404H4.41434C4.82855 7.01404 5.16434 7.34982 5.16434 7.76404C5.16434 8.17825 4.82855 8.51404 4.41434 8.51404H4.40894C3.99472 8.51404 3.65894 8.17825 3.65894 7.76404ZM7.00293 7.01406C6.58872 7.01406 6.25293 7.34984 6.25293 7.76406C6.25293 8.17827 6.58872 8.51406 7.00293 8.51406H7.00834C7.42255 8.51406 7.75834 8.17827 7.75834 7.76406C7.75834 7.34984 7.42255 7.01406 7.00834 7.01406H7.00293ZM9.59147 7.01406C9.17726 7.01406 8.84147 7.34984 8.84147 7.76406C8.84147 8.17827 9.17726 8.51406 9.59147 8.51406H9.59688C10.0111 8.51406 10.3469 8.17827 10.3469 7.76406C10.3469 7.34984 10.0111 7.01406 9.59688 7.01406H9.59147ZM9.59147 9.28117C9.17726 9.28117 8.84147 9.61696 8.84147 10.0312C8.84147 10.4454 9.17726 10.7812 9.59147 10.7812H9.59688C10.0111 10.7812 10.3469 10.4454 10.3469 10.0312C10.3469 9.61696 10.0111 9.28117 9.59688 9.28117H9.59147ZM6.25293 10.0312C6.25293 9.61696 6.58872 9.28117 7.00293 9.28117H7.00834C7.42255 9.28117 7.75834 9.61696 7.75834 10.0312C7.75834 10.4454 7.42255 10.7812 7.00834 10.7812H7.00293C6.58872 10.7812 6.25293 10.4454 6.25293 10.0312ZM4.40894 9.28115C3.99472 9.28115 3.65894 9.61693 3.65894 10.0311C3.65894 10.4454 3.99472 10.7811 4.40894 10.7811H4.41434C4.82855 10.7811 5.16434 10.4454 5.16434 10.0311C5.16434 9.61693 4.82855 9.28115 4.41434 9.28115H4.40894Z" fill="#232C34"/>
<path d="M9.35882 1.16663V3.08625" stroke="#232C34" stroke-width="1.5" stroke-linecap="round" stroke-linejoin="round"/>
<path d="M4.64667 1.16663V3.08625" stroke="#232C34" stroke-width="1.5" stroke-linecap="round" stroke-linejoin="round"/>
<path fill-rule="evenodd" clip-rule="evenodd" d="M9.47232 2.08789H4.53306C2.81999 2.08789 1.75 3.04219 1.75 4.79632V10.0753C1.75 11.857 2.81999 12.8334 4.53306 12.8334H9.46692C11.1854 12.8334 12.25 11.8735 12.25 10.1194V4.79632C12.2554 3.04219 11.1908 2.08789 9.47232 2.08789Z" stroke="#232C34" stroke-width="1.5" stroke-linecap="round" stroke-linejoin="round"/>
</svg>
