<svg width="20" height="20" viewBox="0 0 20 20" fill="none" xmlns="http://www.w3.org/2000/svg">
<path d="M6.18612 5.74497C6.18645 11.2343 10.9435 15.591 16.6936 15.591C17.4453 15.591 18.1785 15.5175 18.8845 15.3765L18.8869 15.376C18.9533 15.3625 19.0223 15.368 19.0835 15.3904C19.1444 15.4127 19.1895 15.4486 19.218 15.4865L19.218 15.4865L19.2213 15.4909C19.2438 15.5204 19.2508 15.5492 19.2499 15.573C19.249 15.597 19.2398 15.6268 19.2135 15.6567L19.21 15.6606C18.2382 16.7798 17.009 17.6851 15.6099 18.3074C14.2108 18.9297 12.6789 19.2523 11.1266 19.25H11.1255C5.34217 19.25 0.75 14.894 0.75 9.63706C0.75 5.67626 3.34475 2.2391 7.1046 0.772906L7.10461 0.772916L7.10839 0.771417C7.1654 0.748829 7.23145 0.74357 7.29419 0.758208C7.3567 0.772793 7.40411 0.804159 7.43377 0.838322L7.43376 0.838329L7.43649 0.84144C7.46631 0.87541 7.47964 0.910845 7.48272 0.941817C7.48578 0.972542 7.47955 1.0062 7.45983 1.03984L7.4583 1.04246C6.62195 2.48207 6.18326 4.09933 6.18612 5.74497ZM6.18612 5.74497C6.18612 5.74477 6.18612 5.74458 6.18612 5.74439H6.93612L6.18612 5.74576C6.18612 5.7455 6.18612 5.74523 6.18612 5.74497Z" stroke="white" stroke-width="1.5"/>
</svg>
