<svg width="16" height="15" viewBox="0 0 16 15" fill="none" xmlns="http://www.w3.org/2000/svg">
<path d="M13.7887 11.8118L14.5164 11.9932L14.5164 11.9932L13.7887 11.8118ZM14.9563 7.12811L14.2286 6.94669L14.2286 6.94669L14.9563 7.12811ZM9.64223 5.33333L9.01765 4.91812C8.86462 5.14832 8.85061 5.44403 8.9812 5.68766C9.11179 5.93129 9.36581 6.08333 9.64223 6.08333V5.33333ZM10.6568 3.8071L11.2814 4.22231L11.2814 4.22231L10.6568 3.8071ZM8.20186 1V0.25C7.93239 0.25 7.68363 0.394561 7.55022 0.628688L8.20186 1ZM5.416 5.88903L6.06764 6.26034L6.06764 6.26034L5.416 5.88903ZM5.64181 12.77L5.22497 13.3935L5.22497 13.3935L5.64181 12.77ZM6.75594 13.5148L7.17278 12.8913L7.17278 12.8913L6.75594 13.5148ZM2.44037 5.36111H3.88074V3.86111H2.44037V5.36111ZM4.57111 6.05556V12.5556H6.07111V6.05556H4.57111ZM3.88074 13.25H2.44037V14.75H3.88074V13.25ZM1.75 12.5556V6.05556H0.25V12.5556H1.75ZM2.44037 13.25C2.06109 13.25 1.75 12.9411 1.75 12.5556H0.25C0.25 13.7655 1.22867 14.75 2.44037 14.75V13.25ZM4.57111 12.5556C4.57111 12.9411 4.26003 13.25 3.88074 13.25V14.75C5.09245 14.75 6.07111 13.7655 6.07111 12.5556H4.57111ZM3.88074 5.36111C4.26003 5.36111 4.57111 5.67003 4.57111 6.05556H6.07111C6.07111 4.8456 5.09245 3.86111 3.88074 3.86111V5.36111ZM2.44037 3.86111C1.22867 3.86111 0.25 4.8456 0.25 6.05556H1.75C1.75 5.67003 2.06109 5.36111 2.44037 5.36111V3.86111ZM8.35389 14.75H10.9939V13.25H8.35389V14.75ZM14.5164 11.9932L15.684 7.30952L14.2286 6.94669L13.0609 11.6304L14.5164 11.9932ZM13.5589 4.58333H9.64223V6.08333H13.5589V4.58333ZM10.2668 5.74855L11.2814 4.22231L10.0323 3.39188L9.01765 4.91812L10.2668 5.74855ZM9.15877 0.25H8.20186V1.75H9.15877V0.25ZM7.55022 0.628688L4.76437 5.51772L6.06764 6.26034L8.85349 1.37131L7.55022 0.628688ZM4.57111 6.24735V12.169H6.07111V6.24735H4.57111ZM5.22497 13.3935L6.3391 14.1383L7.17278 12.8913L6.05865 12.1465L5.22497 13.3935ZM4.57111 12.169C4.57111 12.6603 4.81595 13.12 5.22497 13.3935L6.05865 12.1465C6.06697 12.152 6.07111 12.1607 6.07111 12.169H4.57111ZM15.684 7.30953C16.0286 5.92731 14.9865 4.58333 13.5589 4.58333V6.08333C14.0055 6.08333 14.3385 6.50559 14.2286 6.94669L15.684 7.30953ZM10.9939 14.75C12.6615 14.75 14.1128 13.6121 14.5164 11.9932L13.0609 11.6304C12.8233 12.5836 11.9702 13.25 10.9939 13.25V14.75ZM8.35389 13.25C7.9337 13.25 7.52274 13.1253 7.17278 12.8913L6.3391 14.1383C6.93557 14.5371 7.63662 14.75 8.35389 14.75V13.25ZM11.2814 4.22231C12.4083 2.52716 11.1992 0.25 9.15877 0.25V1.75C9.99435 1.75 10.5007 2.68726 10.0323 3.39188L11.2814 4.22231ZM4.76437 5.51772C4.63767 5.74006 4.57111 5.99155 4.57111 6.24735H6.07111C6.07111 6.25178 6.06997 6.25625 6.06764 6.26034L4.76437 5.51772Z" fill="#232C34"/>
</svg>
